<svg id="Layer_1" data-name="Layer 1" xmlns="http://www.w3.org/2000/svg" viewBox="0 0 336.89 336.89"><defs><style>.cls-1{fill:#212121;}.cls-11,.cls-12,.cls-2{fill:#fff;}.cls-3{fill:#fefefe;}.cls-4{fill:#fdfdfd;}.cls-5{fill:#f9f9f9;}.cls-6{fill:#f7f7f7;}.cls-7{fill:#f3f3f3;}.cls-8{fill:#f4f4f4;}.cls-9{fill:#ededed;}.cls-10{fill:#e5e5e5;}.cls-11,.cls-12{isolation:isolate;font-family:Crimson-Roman, Crimson;}.cls-11{font-size:38.04px;}.cls-12{font-size:20.65px;}</style></defs><circle class="cls-1" cx="168.45" cy="168.45" r="168.45"/><path class="cls-2" d="M258.54,170.72c-11.13,2.89-20.4-.69-28.82-6.75-16-11.57-30.39-24.11-42.23-39.67-11.41-15-24.11-28.78-39.66-40.08-13.13-9.5-27.68-13.91-44.23-11.84-1.43.14-3,.83-3.71-.69-1-2.2,1.43-2.62,2.57-3.3,12.27-7.72,25.25-7.58,38.38-2.76,11.7,4.55,20.68,12.4,29.67,20.52,11.84,10.74,21.26,23.55,31.1,35.81,15.56,19.28,32,37.32,56.22,47C258,169.2,258.11,169.75,258.54,170.72Z"/><path class="cls-3" d="M94.32,53.79a89.59,89.59,0,0,0,16-13.91,14.81,14.81,0,0,1,7.85-4.41c3.85-.69,6.85-.41,5.42,4.82-1.85,6.33,1.86,5.65,6,4.54,17.13-4.95,19.55-4.13,28.54,11,5.14,8.27,11.56,14.19,22,15.15a24.83,24.83,0,0,1,18.41,11.3c11.12,16.66,21.25,34.15,40.09,45.17-4.14,2.34-6.14.28-8.14-.83-12-5.92-20.68-15.28-27.82-26.16-3-4.69-5.7-9.23-9.13-13.64-3.71-4.82-8.42-7.71-15-7.71-10.84.14-18.55-5.1-23.11-14-5.28-11.16-13.13-16.25-26.11-14-4.71.83-10.27,2.07-12.41-5.23-.57-3.58-3.57-.41-5.14.69C106.45,49.79,101.74,54.48,94.32,53.79Z"/><path class="cls-3" d="M130.56,281.17a72.11,72.11,0,0,1-1.42-35.26c2.14-10.6,6.42-20.79,7.42-31.67a130,130,0,0,0-.86-29.75c-1.14-8.82-1.57-17.63.71-26.31.86-3.44,2-6.75,5.14-9.09a2.88,2.88,0,0,1,1.57,3.31c-1.71,15.15.28,30.3,2.28,45.31,1.57,12.12,0,24-3.14,35.53C138.27,249.08,133.27,264.78,130.56,281.17Z"/><path class="cls-4" d="M125.71,166.45c-4.85-7.17-5-13.78-3.85-20.53A59.27,59.27,0,0,1,132.7,121c2.86-4,5.57-7.72,7.14-12.4,4.56-12.53,2.57-17.63-9.13-23.83,8.7-2.2,18.4,5,20.26,15,1.71,8.95-1.86,16.39-7.71,23.13-7.27,8.13-13.7,16.67-15.69,27.55C126.57,155.29,126.43,160.25,125.71,166.45Z"/><path class="cls-5" d="M97.32,76.92c-9,1.11-10,6.48-8.85,13.36.29,1.52.43,3.58-1.56,4.14-2.29.68-3.43-1.38-4-3-2.71-6.34-5.85-5.93-10-1.24-2.56,2.89-5.85,4.4-9.13,1.51s-.85-5.78,1.43-8.26c3-3.17,6.13-6.06,9.42-9a4.44,4.44,0,0,1,3.13-1c1.43.41,1,1.79.58,2.89-.72,1.79-2.57,4,.85,4.82,3,.69,6,1.24,7.42-2.75C88.62,72.38,92,71.55,97.32,76.92Z"/><path class="cls-6" d="M85.91,171.4c-4.43-6.88-5-14.32-4-21.76,1-8,.86-15.7-3.14-23.13A13.79,13.79,0,0,1,76.92,118c.71-5.1,1.43-10.33-.72-15.29-.57-1.24-.71-2.89,1-3.58s2.57.82,3.29,1.93a18.41,18.41,0,0,1,2.14,12.53c-.72,4.68-.86,9.23,1.28,13.36C91.19,141.52,83.62,156.67,85.91,171.4Z"/><path class="cls-7" d="M118.15,161.35c-4.56,6.47-5.71,12.26-7.42,17.9s-7,8.13-12.84,9.09c-1.28.28-3.14.42-3.42-1.51a2.3,2.3,0,0,1,2.14-2.34c8.7-.69,10.41-6.61,11.7-13.64C109.16,167.27,111.3,163.69,118.15,161.35Z"/><path class="cls-8" d="M77.92,49.1c.14-1.92-2.86-4-.29-5.37,2-1.24,4,.69,5.42,2.07,4.85,4.13,7.28,8.81,5.28,15.84-4.56-4.13-4.56-10.88-10.41-12.54Z"/><path class="cls-8" d="M77.92,48.83c.28,6.2,5.13,10.74,7.56,16.39-7.85-1.38-13.13-8.13-12.13-15C73.92,45.8,76.2,48,78.2,49,77.92,49.1,77.92,48.83,77.92,48.83Z"/><path class="cls-9" d="M124.71,177.05c-1.57,5.1-4.28,8.95-9,11.16a2.34,2.34,0,0,1-3.14-.69c-.86-1.24,0-2.21,1.14-2.76,3.42-1.92,5.85-4.4,7-8a2,2,0,0,1,2.71-1.52C124,175.4,124.29,176.5,124.71,177.05Z"/><path class="cls-10" d="M95.75,180.08a5.57,5.57,0,0,1-4.56-2.89,4.68,4.68,0,0,1,1-5.51,6,6,0,0,1,1.86-.83c.43,3.72,2.71,5.1,6.13,4.69C100.32,178.43,98.32,179.53,95.75,180.08Z"/><path class="cls-10" d="M89.33,112.6c-1.14-2.21-.71-3.59,2-3.59,2.28,0,4.42.83,4.56,3.17.29,2.89-2.14,3.86-4.56,4C88.47,116.18,88.47,114.52,89.33,112.6Z"/><text class="cls-11" transform="translate(161.02 196.82) scale(1.04 1)">THE</text><text class="cls-11" transform="translate(161.02 233.5) scale(1.04 1)">NAGS</text><text class="cls-11" transform="translate(161.02 270.19) scale(1.04 1)">HEAD</text><text class="cls-12" transform="translate(161.02 294.92) scale(1.04 1)">EST.1864</text></svg>